PathFileType	4	(X/Y/Z)	SUBJ36_1_walk_RCNL2025.trc
DataRate	CameraRate	NumFrames	NumMarkers	Units	OrigDataRate	OrigDataStartFrame	OrigNumFrames
100	100	7	25	mm	100	237	378
Frame#	Time	R_Shoulder			L_Shoulder			C7			J_Notch			R_Elbow			L_Elbow			R_Wrist			L_Wrist			R_Asis			L_Asis			Sacral			Thoracic			Sternum			R_Thigh_Lateral			R_Knee_Lateral			R_Shank_Lateral			R_Ankle_Lateral			R_Heel			R_Toe			L_Thigh_Lateral			L_Knee_Lateral			L_Shank_Lateral			L_Ankle_Lateral			L_Heel			L_Toe		
		X1	Y1	Z1	X2	Y2	Z2	X3	Y3	Z3	X4	Y4	Z4	X5	Y5	Z5	X6	Y6	Z6	X7	Y7	Z7	X8	Y8	Z8	X9	Y9	Z9	X10	Y10	Z10	X11	Y11	Z11	X12	Y12	Z12	X13	Y13	Z13	X14	Y14	Z14	X15	Y15	Z15	X16	Y16	Z16	X17	Y17	Z17	X18	Y18	Z18	X19	Y19	Z19	X20	Y20	Z20	X21	Y21	Z21	X22	Y22	Z22	X23	Y23	Z23	X24	Y24	Z24	X25	Y25	Z25
237	2.36000000	1541.604370	1339.181030	-29.353939	1569.158081	1315.428955	-373.631195	1488.425293	1395.692139	-196.432129	1625.557861	1289.158325	-187.161774	1436.857422	1031.616821	41.266605	1531.921631	999.864258	-429.123749	1478.532166	797.835175	84.850548	1654.242310	801.056671	-396.382477	1593.890015	906.335449	-71.493668	1611.618408	897.584473	-302.018829	1383.907471	886.968018	-191.605957	1406.144043	1141.289062	-203.444260	1654.815674	1107.786011	-172.968704	1639.355713	513.462219	4.075267	1664.701782	454.252686	-36.521469	1657.321655	248.377457	6.581041	1698.320312	77.935623	-53.703705	1663.193726	45.479809	-105.881927	1820.262207	68.899239	-60.311691	1447.792725	517.180786	-363.403381	1430.449585	445.706085	-287.363525	1362.948608	240.420349	-308.855804	1324.169800	80.082962	-227.070816	1281.284424	58.346645	-173.016449	1447.750366	41.686451	-208.611725
238	2.37000000	1552.664917	1337.452637	-28.345560	1580.549072	1313.624146	-372.571594	1499.577393	1393.925171	-195.477585	1636.716553	1287.418579	-186.101669	1447.915771	1029.906982	42.128906	1545.240112	997.775757	-427.629547	1488.418701	796.027588	86.162609	1669.275208	800.179596	-393.871368	1605.638550	904.642944	-70.229614	1623.144775	896.828613	-301.216797	1395.658081	885.248840	-190.020737	1417.326416	1139.461060	-202.278656	1666.084595	1106.038452	-171.933868	1648.587158	509.995605	3.731211	1676.436646	452.117676	-36.600674	1682.752075	246.590576	8.982251	1731.500122	77.292389	-50.703499	1696.406860	42.573170	-101.475365	1853.812622	74.052948	-61.367992	1453.547852	518.410034	-362.899628	1435.866699	446.861511	-287.048492	1364.809082	242.661957	-308.616425	1325.084351	82.282288	-227.012177	1282.184448	61.078079	-172.828659	1448.187988	41.792347	-208.672241
239	2.38000000	1563.747070	1335.739624	-27.250557	1591.883423	1311.836548	-371.441925	1510.708374	1392.156982	-194.433746	1647.885864	1285.717773	-184.979065	1459.202393	1028.156616	43.058517	1558.543579	995.701294	-426.002289	1498.574524	794.162079	87.471077	1684.093323	799.190369	-391.416351	1617.595459	902.864380	-68.964821	1634.847290	896.069397	-300.360016	1407.582886	883.554382	-188.409866	1428.581909	1137.594971	-200.980499	1677.398193	1104.335571	-170.835709	1657.889648	506.334137	3.255069	1688.347290	450.082550	-36.827736	1707.614746	245.642029	11.202089	1762.721069	77.500252	-48.017498	1727.591675	40.704346	-97.367661	1885.072998	79.316902	-62.627918	1460.233521	519.446045	-362.412598	1441.999756	447.853912	-286.751221	1367.198242	244.898834	-308.488464	1326.170776	84.576271	-227.158432	1283.129761	63.956806	-172.902924	1448.702393	41.942070	-208.814514
240	2.39000000	1574.857788	1334.061890	-26.068792	1603.167114	1310.091431	-370.246338	1521.828979	1390.409668	-193.297668	1659.080444	1284.084229	-183.792343	1470.704468	1026.389404	44.057232	1571.834473	993.670837	-424.252319	1509.002625	792.255554	88.771549	1698.691956	798.109589	-389.021133	1629.755127	901.049744	-67.686852	1646.745361	895.269836	-299.423248	1419.688232	881.888428	-186.784470	1439.930542	1135.717285	-199.562546	1688.767456	1102.700562	-169.671448	1667.606201	502.716797	2.749366	1700.588501	448.236420	-37.146412	1731.609985	245.358047	13.138662	1791.626831	78.271118	-45.776627	1756.416260	39.645157	-93.786362	1913.781250	84.298553	-64.010925	1467.848755	520.224182	-361.971863	1448.856567	448.637268	-286.477173	1370.236938	247.065384	-308.497559	1327.434082	86.946579	-227.530640	1284.119019	66.980698	-173.267151	1449.281494	42.106586	-209.029587
241	2.40000000	1586.006836	1332.437012	-24.804113	1614.413574	1308.408325	-368.991791	1532.957886	1388.703857	-192.069763	1670.319580	1282.540894	-182.540131	1482.404785	1024.625732	45.129261	1585.109253	991.710388	-422.394104	1519.707886	790.326447	90.060497	1713.066833	796.957062	-386.688675	1642.107422	899.239014	-66.383415	1658.859253	894.393921	-298.385925	1431.980713	880.252502	-185.156967	1451.392334	1133.850708	-198.041473	1700.209229	1101.152954	-168.439148	1678.082642	499.385071	2.334824	1713.281006	446.630493	-37.486137	1754.412476	245.489670	14.692240	1817.912842	79.273438	-44.103783	1782.603271	39.122917	-90.945518	1939.741699	88.609741	-65.459976	1476.370605	520.696655	-361.595642	1456.422363	449.187134	-286.226837	1373.997559	249.118484	-308.658936	1328.877075	89.390060	-228.135208	1285.170044	70.157639	-173.925034	1449.913696	42.260551	-209.307663
242	2.41000000	1597.206299	1330.880127	-23.462402	1625.644775	1306.801880	-367.684692	1544.119873	1387.056030	-190.753876	1681.625122	1281.102295	-181.221176	1494.283691	1022.885010	46.280487	1598.358276	989.841797	-420.446228	1530.701172	788.397919	91.338757	1727.213440	795.749786	-384.417603	1654.641357	897.463013	-65.044975	1671.208496	893.412415	-297.233887	1444.467285	878.651245	-183.537354	1462.987915	1132.009644	-196.435562	1711.745483	1099.708130	-167.137833	1689.612915	496.546265	2.117480	1726.485840	445.268280	-37.781460	1775.687378	245.742310	15.779137	1841.349731	80.170959	-43.091026	1805.944214	38.852772	-89.007858	1962.826538	91.904137	-66.939980	1485.750244	520.846558	-361.285675	1464.662231	449.502502	-285.994263	1378.492310	251.044922	-308.972168	1330.504150	91.917931	-228.962143	1286.313721	73.501961	-174.859711	1450.590698	42.388752	-209.640213
243	2.42000000	1608.472046	1329.404419	-22.049725	1636.892334	1305.281982	-366.328979	1555.341431	1385.478394	-189.357468	1693.019043	1279.775269	-179.834488	1506.321289	1021.186401	47.516445	1611.567627	988.081604	-418.431061	1542.004089	786.500549	92.613762	1741.126587	794.503052	-382.203796	1667.350464	895.747864	-63.665054	1683.809692	892.308289	-295.961151	1457.155396	877.094299	-181.930450	1474.737183	1130.201294	-194.762634	1723.403198	1098.377808	-165.766678	1702.374390	494.342346	2.158519	1740.190552	444.108978	-37.990601	1795.115723	245.819656	16.339846	1861.804199	80.666748	-42.780704	1826.311890	38.578594	-88.051300	1982.981323	93.909920	-68.439972	1495.905151	520.696045	-361.024261	1473.528442	449.604370	-285.767914	1383.677490	252.861801	-309.419037	1332.325073	94.553085	-229.988647	1287.589478	77.032654	-176.037003	1451.310303	42.484997	-210.020096
